v 0.0 -0.525731 0.850651
v 0.850651 0.0 0.525731
v 0.850651 0.0 -0.525731
v -0.850651 0.0 -0.525731
v -0.850651 0.0 0.525731
v -0.525731 0.850651 0.0
v 0.525731 0.850651 0.0
v 0.525731 -0.850651 0.0
v -0.525731 -0.850651 0.0
v 0.0 -0.525731 -0.850651
v 0.0 0.525731 -0.850651
v 0.0 0.525731 0.850651
vn 0.934172 0.356822 0.0
vn 0.934172 -0.356822 0.0
vn -0.934172 0.356822 0.0
vn -0.934172 -0.356822 0.0
vn 0.934172 -0.356822 0.0
vn 0.0 0.934172 0.356822
vn 0.356822 0.0 -0.934172
vn -0.356822 0.0 -0.934172
vn 0.0 -0.934172 -0.356822
vn 0.0 -0.934172 -0.356822
vn 0.356822 0.0 0.934172
vn -0.356822 0.0 0.934172
vn 0.57735 0.57735 -0.57735 
vn 0.57735 0.57735 0.57735  
vn -0.57735 0.57735 -0.57735 
vn -0.57735 0.57735 -0.57735 
vn 0.57735 -0.57735 -0.57735 
vn 0.57735 -0.57735 0.57735
vn -0.57735 -0.57735 -0.57735
vn -0.57735 -0.57735 0.57735
vt 0.0 1.0
f 2/1/1 3/1/1 7/1/1
f 2/1/2 8/1/2 3/1/2
f 4/1/3 5/1/3 6/1/3
f 5/1/4 4/1/4 9/1/4
f 7/1/5 6/1/5 12/1/5
f 6/1/6 7/1/6 11/1/6
f 10/1/7 11/1/7 3/1/7
f 11/1/8 10/1/8 4/1/8
f 8/1/9 9/1/9 10/1/9
f 9/1/10 8/1/10 1/1/10
f 12/1/11 1/1/11 2/1/11
f 1/1/12 12/1/12 5/1/12
f 7/1/13 3/1/13 11/1/13
f 2/1/14 7/1/14 12/1/14
f 4/1/15 6/1/15 11/1/15
f 6/1/16 5/1/16 12/1/16
f 3/1/17 8/1/17 10/1/17
f 8/1/18 2/1/18 1/1/18
f 4/1/19 10/1/19 9/1/19
f 5/1/20 9/1/20 1/1/20